<?xml version="1.0" encoding="utf-8"?>
<!DOCTYPE svg PUBLIC "-//W3C//DTD SVG 1.1//EN" "http://www.w3.org/Graphics/SVG/1.1/DTD/svg11.dtd">
<svg version="1.1" id="Layer_1" xmlns="http://www.w3.org/2000/svg" xmlns:xlink="http://www.w3.org/1999/xlink" x="0px" y="0px"
	 width="160px" height="48px" viewBox="0 0 160 48" enable-background="new 0 0 160 48" xml:space="preserve">
<g id="Logo">
	<path fill="#FFFFFF" d="M6.962,0v39.59h13.566v6.544H0V0H6.962z"/>
	<path fill="#FFFFFF" d="M29.63,17.031v16.703c0,4.821,1.902,7.231,5.707,7.231s5.708-2.41,5.708-7.231V17.031h6.723v16.852
		c0,2.33-0.289,4.343-0.867,6.035c-0.558,1.514-1.524,2.878-2.898,4.093c-2.271,1.973-5.16,2.958-8.666,2.958
		c-3.486,0-6.364-0.986-8.635-2.958c-1.395-1.215-2.38-2.579-2.958-4.093c-0.558-1.355-0.836-3.366-0.836-6.035V17.031H29.63z"/>
	<path fill="#FFFFFF" d="M53.194,17.031h6.723v2.689c1.295-1.355,2.4-2.271,3.317-2.749c0.976-0.497,2.201-0.747,3.675-0.747
		c3.287,0,5.886,1.435,7.799,4.302c2.111-2.868,4.97-4.302,8.576-4.302c6.554,0,9.831,3.974,9.831,11.922v17.987h-6.753V29.969
		c0-2.788-0.339-4.761-1.016-5.916c-0.698-1.175-1.843-1.763-3.436-1.763c-1.853,0-3.202,0.698-4.049,2.092
		c-0.847,1.395-1.27,3.635-1.27,6.723v15.029h-6.753V30.059c0-5.179-1.494-7.769-4.482-7.769c-1.893,0-3.272,0.707-4.139,2.122
		c-0.866,1.414-1.3,3.646-1.3,6.693v15.029h-6.723V17.031z"/>
	<path fill="#FFFFFF" d="M156.117,21.991l-5.558,2.958c-0.877-1.773-1.962-2.66-3.257-2.66c-0.618,0-1.146,0.204-1.584,0.612
		c-0.438,0.409-0.657,0.93-0.657,1.567c0,1.114,1.295,2.219,3.884,3.313c3.566,1.532,5.966,2.945,7.202,4.238
		c1.235,1.293,1.853,3.034,1.853,5.222c0,2.805-1.036,5.153-3.108,7.043c-2.012,1.791-4.442,2.686-7.291,2.686
		c-4.881,0-8.337-2.38-10.369-7.141l5.737-2.66c0.797,1.395,1.405,2.281,1.823,2.66c0.817,0.757,1.793,1.135,2.928,1.135
		c2.271,0,3.407-1.036,3.407-3.107c0-1.195-0.877-2.311-2.629-3.347c-0.678-0.338-1.355-0.667-2.032-0.986
		c-0.677-0.318-1.365-0.647-2.062-0.986c-1.953-0.956-3.327-1.913-4.124-2.869c-1.016-1.215-1.524-2.779-1.524-4.691
		c0-2.53,0.866-4.621,2.6-6.275c1.773-1.653,3.924-2.48,6.454-2.48C151.535,16.224,154.304,18.147,156.117,21.991z"/>
	<path fill="#FFFFFF" d="M126.135,23.728c-0.649-1.086-1.449-2.104-2.404-3.052c-3.028-2.968-6.713-4.452-11.056-4.452
		c-4.323,0-7.989,1.474-10.996,4.422c-3.008,2.948-4.512,6.524-4.512,10.727c0,4.462,1.474,8.167,4.422,11.115
		c2.948,2.988,6.604,4.482,10.966,4.482c4.402,0,8.117-1.464,11.146-4.392c0.978-0.958,1.794-1.993,2.454-3.101l-13.65-7.88
		L126.135,23.728z"/>
	<path fill="#FFFFFF" d="M133.074,23.728l-13.63,7.869l13.65,7.88c1.37-2.3,2.058-4.921,2.058-7.865
		C135.153,28.67,134.459,26.043,133.074,23.728z"/>
</g>
</svg>
