<?xml version="1.0" encoding="utf-8"?>
<!-- Generator: Adobe Illustrator 15.0.0, SVG Export Plug-In  -->
<!DOCTYPE svg PUBLIC "-//W3C//DTD SVG 1.1//EN" "http://www.w3.org/Graphics/SVG/1.1/DTD/svg11.dtd" [
	<!ENTITY ns_flows "http://ns.adobe.com/Flows/1.0/">
]>
<svg version="1.1"
	 xmlns="http://www.w3.org/2000/svg" xmlns:xlink="http://www.w3.org/1999/xlink" xmlns:a="http://ns.adobe.com/AdobeSVGViewerExtensions/3.0/"
	 x="0px" y="0px" width="84px" height="25px" viewBox="0 0 84 25" overflow="visible" enable-background="new 0 0 84 25"
	 xml:space="preserve">
<defs>
</defs>
<path fill="#1D91D8" d="M3.706,0v21.072h7.22v3.482H0V0H3.706z"/>
<path fill="#1D91D8" d="M15.771,9.064v8.891c0,2.566,1.013,3.848,3.037,3.848s3.039-1.281,3.039-3.848V9.064h3.577v8.97
	c0,1.239-0.153,2.312-0.461,3.212c-0.298,0.807-0.812,1.533-1.543,2.18C22.212,24.475,20.675,25,18.809,25
	c-1.855,0-3.388-0.525-4.597-1.574c-0.741-0.646-1.267-1.373-1.573-2.18c-0.298-0.721-0.445-1.791-0.445-3.212v-8.97H15.771z"/>
<path fill="#1D91D8" d="M28.312,9.064h3.578v1.432c0.689-0.721,1.277-1.208,1.767-1.463c0.519-0.265,1.171-0.397,1.956-0.397
	c1.748,0,3.133,0.763,4.15,2.29c1.123-1.527,2.646-2.29,4.563-2.29c3.486,0,5.23,2.115,5.23,6.347v9.572h-3.596v-8.604
	c0-1.484-0.18-2.534-0.54-3.149c-0.371-0.625-0.979-0.938-1.827-0.938c-0.986,0-1.705,0.372-2.156,1.113
	c-0.451,0.743-0.676,1.936-0.676,3.58v7.998h-3.596V16c0-2.758-0.795-4.137-2.385-4.137c-1.008,0-1.741,0.377-2.203,1.129
	c-0.461,0.754-0.691,1.941-0.691,3.562v8h-3.578L28.312,9.064L28.312,9.064z"/>
<path fill="#1D91D8" d="M83.094,11.705l-2.959,1.574c-0.466-0.943-1.044-1.417-1.732-1.417c-0.326,0-0.607,0.109-0.842,0.326
	c-0.232,0.217-0.352,0.495-0.352,0.834c0,0.594,0.689,1.181,2.066,1.764c1.896,0.814,3.177,1.566,3.834,2.255
	c0.656,0.688,0.986,1.615,0.986,2.78c0,1.492-0.555,2.742-1.654,3.748C81.37,24.523,80.077,25,78.561,25
	c-2.598,0-4.437-1.268-5.519-3.801l3.054-1.416c0.424,0.742,0.748,1.215,0.971,1.416c0.438,0.402,0.955,0.604,1.561,0.604
	c1.209,0,1.812-0.551,1.812-1.652c0-0.637-0.467-1.229-1.397-1.781c-0.358-0.182-0.724-0.354-1.081-0.524
	c-0.359-0.17-0.729-0.345-1.1-0.524c-1.039-0.508-1.771-1.019-2.193-1.526c-0.54-0.646-0.812-1.479-0.812-2.497
	c0-1.346,0.461-2.459,1.386-3.34c0.94-0.879,2.089-1.319,3.437-1.319C80.654,8.636,82.128,9.659,83.094,11.705z"/>
<path fill="#1D91D8" d="M67.135,12.629c-0.345-0.577-0.771-1.119-1.279-1.624c-1.608-1.579-3.569-2.369-5.883-2.369
	c-2.302,0-4.252,0.784-5.854,2.354c-1.602,1.568-2.402,3.472-2.402,5.708c0,2.375,0.785,4.348,2.354,5.917
	c1.57,1.59,3.518,2.385,5.84,2.385c2.343,0,4.318-0.779,5.933-2.338c0.521-0.51,0.954-1.061,1.308-1.65l-7.268-4.193L67.135,12.629z
	"/>
<path fill="#1D91D8" d="M70.829,12.629l-7.255,4.188l7.266,4.194c0.729-1.225,1.096-2.618,1.096-4.186
	C71.936,15.257,71.564,13.861,70.829,12.629z"/>
</svg>
